<svg id="outputsvg" xmlns="http://www.w3.org/2000/svg" width="520" height="135" viewBox="0 0 10000 2610" preserveAspectRatio="xMidYMid meet" style="transform: matrix(1, 0, 0, 1, -13, 88); transform-origin: 50% 50%; cursor: move; display: inline; transition: none 0s ease 0s;" title="webyeventos.svg (31KB)">
  <g id="layer101" fill="#1d3435" stroke="none">
    <path d="M1530 2604 c-74 -14 -179 -48 -276 -90 -60 -25 -111 -48 -113 -50 -2 -2 17 -45 43 -94 61 -120 189 -364 192 -368 1 -2 22 7 45 19 63 32 166 59 225 59 65 0 146 -39 173 -84 11 -18 28 -60 36 -93 l15 -60 -60 -142 c-33 -77 -60 -144 -60 -147 0 -4 -27 -70 -59 -148 -33 -78 -74 -178 -91 -223 -17 -46 -34 -85 -38 -87 -4 -2 -20 28 -36 67 -27 67 -93 225 -244 587 l-61 145 -289 3 -288 2 -38 -92 c-22 -51 -54 -132 -72 -180 -18 -48 -53 -136 -77 -195 -25 -60 -80 -196 -122 -303 -42 -107 -105 -265 -140 -350 -34 -85 -66 -166 -70 -180 -4 -14 -34 -88 -66 -164 -33 -76 -59 -145 -59 -152 0 -12 61 -14 343 -14 l344 0 67 192 c37 106 97 274 132 373 35 99 64 188 64 198 0 9 3 17 8 17 6 0 58 -119 122 -285 82 -210 194 -482 202 -493 8 -9 73 -12 286 -10 l275 3 39 100 c41 104 108 269 198 485 28 69 60 147 69 173 10 27 21 43 24 35 3 -7 39 -97 81 -200 107 -268 189 -385 341 -488 171 -116 272 -145 500 -144 228 0 319 26 481 135 238 160 379 494 350 831 l-8 88 -195 0 -196 0 70 58 c57 47 232 193 267 223 11 10 -46 75 -133 152 -44 38 -103 77 -176 112 -164 81 -207 90 -420 90 -159 0 -189 -3 -260 -23 -103 -30 -235 -92 -300 -141 l-52 -39 -18 76 c-24 106 -99 320 -137 395 -108 215 -228 333 -400 395 -67 24 -88 26 -243 28 -93 1 -181 0 -195 -2z m1814 -1203 c45 -23 104 -59 130 -81 l48 -40 -341 0 c-188 0 -341 3 -341 8 0 14 35 60 65 84 73 61 136 79 258 74 92 -3 103 -6 181 -45z m-4 -536 c-27 -72 -97 -148 -148 -163 -15 -4 -65 -7 -112 -6 -98 0 -152 22 -193 76 -24 32 -57 91 -57 102 0 3 116 7 258 9 141 1 258 3 259 5 1 1 -2 -9 -7 -23z"></path>  <path d="M4455 2243 c-11 -2 -43 -13 -71 -24 -73 -29 -82 -53 -52 -137 14 -39 32 -71 46 -80 20 -13 27 -13 61 2 57 26 101 18 129 -24 28 -42 28 -42 -43 -220 -206 -520 -237 -604 -233 -638 4 -35 38 -52 105 -52 77 0 96 13 121 78 11 31 36 98 55 147 18 50 53 143 77 208 24 64 47 117 51 117 4 0 11 -15 14 -32 20 -93 159 -485 177 -500 14 -13 37 -18 77 -18 103 0 129 34 97 127 l-16 46 60 -57 c33 -31 85 -69 117 -84 54 -25 67 -27 193 -27 120 0 141 3 187 24 29 13 58 29 64 37 16 20 29 17 29 -5 0 -41 35 -51 180 -51 103 0 141 4 157 15 13 9 35 58 63 140 24 69 48 132 54 141 9 12 21 -12 60 -123 27 -78 57 -146 68 -155 17 -15 41 -18 157 -18 150 0 181 9 181 55 l0 25 43 -30 c81 -57 255 -78 380 -45 69 18 97 34 160 94 l47 45 0 -52 c0 -86 12 -92 178 -92 76 0 142 4 148 10 6 6 29 4 63 -7 81 -23 213 -15 280 18 36 18 51 22 51 13 0 -16 31 -34 59 -34 19 0 21 -6 21 -64 0 -48 5 -70 19 -87 18 -23 24 -24 154 -24 170 0 177 4 177 107 l0 68 70 0 c86 0 110 18 110 81 l0 41 35 -31 c79 -69 179 -101 315 -101 144 0 225 27 327 109 l59 48 34 -40 c48 -57 111 -93 187 -107 78 -15 203 -8 283 15 68 20 158 73 166 98 6 20 -79 171 -107 190 -15 9 -9 17 38 60 70 65 83 91 83 173 0 146 -99 243 -281 274 -115 20 -291 -20 -406 -93 l-38 -24 -35 24 c-87 62 -212 103 -313 103 -106 0 -249 -51 -326 -115 l-31 -27 0 30 c0 61 -97 103 -237 103 -118 0 -195 -36 -244 -116 l-19 -30 0 51 c0 79 -10 84 -173 84 -187 0 -177 16 -177 -269 0 -156 -3 -220 -12 -229 -17 -17 -74 -15 -92 4 -14 13 -16 49 -16 235 0 278 13 259 -174 259 -133 0 -135 0 -155 -26 -12 -15 -21 -37 -21 -50 0 -22 -1 -22 -50 11 -89 60 -152 78 -270 79 -77 1 -120 -4 -160 -18 -161 -54 -268 -164 -293 -301 l-13 -68 -62 146 c-34 80 -67 159 -73 176 -17 49 -52 61 -177 61 -90 0 -114 -3 -131 -17 -12 -10 -39 -61 -60 -113 -21 -52 -54 -130 -74 -174 l-34 -78 -7 36 c-8 43 -38 66 -86 66 l-35 0 43 36 c58 49 57 79 -5 134 -151 133 -380 156 -567 57 -125 -65 -200 -175 -212 -307 l-7 -72 -29 78 c-16 44 -56 160 -89 259 -70 208 -122 325 -168 377 -51 58 -154 89 -236 71z m2795 -618 c0 -9 -9 -15 -22 -15 -21 0 -21 0 -2 15 24 18 24 18 24 0z m-1777 -12 c-13 -2 -35 -2 -50 0 -16 2 -5 4 22 4 28 0 40 -2 28 -4z m1480 0 c-13 -2 -35 -2 -50 0 -16 2 -5 4 22 4 28 0 40 -2 28 -4z m2031 -17 c49 -20 66 -51 66 -116 0 -81 -42 -120 -126 -120 -131 0 -170 169 -53 232 40 22 68 23 113 4z m-539 -2 c18 -5 20 -14 20 -115 l0 -109 -32 0 -33 0 0 115 c0 120 1 121 45 109z m-2982 -236 c-2 -5 -24 -8 -48 -8 -24 0 -46 3 -48 8 -3 4 19 7 48 7 29 0 51 -3 48 -7z m1490 0 c-2 -5 -24 -8 -48 -8 -24 0 -46 3 -48 8 -3 4 19 7 48 7 29 0 51 -3 48 -7z"></path>  <path d="M5577 1059 c-66 -10 -153 -43 -215 -82 -49 -32 -125 -130 -142 -185 -6 -20 -14 -44 -17 -52 -3 -8 -27 49 -53 128 -27 79 -56 152 -66 163 -15 17 -32 19 -149 19 -112 0 -136 -3 -153 -17 -12 -11 -37 -69 -60 -137 l-39 -119 -31 79 c-16 43 -36 98 -43 122 -19 66 -34 72 -177 72 -68 0 -131 -4 -141 -10 -22 -11 -33 -38 -123 -295 -168 -480 -160 -451 -130 -478 16 -14 43 -17 161 -17 78 0 150 4 160 9 11 6 30 51 51 121 24 78 37 106 42 93 3 -10 21 -60 39 -111 42 -120 49 -125 204 -120 139 4 145 8 181 127 42 139 41 139 81 15 19 -60 42 -115 51 -121 20 -16 284 -18 313 -3 12 7 19 21 19 40 l0 30 47 -30 c88 -56 218 -80 329 -61 124 22 212 76 273 167 l31 47 0 -204 c0 -266 -11 -249 164 -249 171 0 166 -4 166 149 0 102 2 112 18 107 156 -48 291 -19 395 85 67 68 101 135 118 234 21 133 -23 283 -110 373 -21 22 -69 55 -107 73 -63 31 -76 34 -164 34 -70 0 -104 -4 -129 -17 -30 -16 -36 -16 -54 -3 -16 11 -51 15 -138 15 -115 0 -118 -1 -138 -26 -14 -18 -21 -41 -21 -72 l0 -46 -32 31 c-102 96 -263 144 -411 122z m443 -252 c0 -32 -1 -33 -37 -29 l-37 5 35 28 c19 16 35 29 37 29 1 0 2 -15 2 -33z m489 -53 c27 -19 51 -71 51 -110 0 -40 -30 -93 -61 -109 -42 -22 -75 -18 -111 14 -31 28 -33 33 -33 101 0 66 2 74 28 96 33 29 91 32 126 8z m-846 -236 c-16 -8 -32 -8 -55 0 -32 9 -31 10 22 10 46 1 52 -1 33 -10z"></path>  </g> <g id="layer102" fill="#333132" stroke="none">  <path d="M1530 2604 c-74 -14 -179 -48 -276 -90 -60 -25 -111 -48 -113 -50 -2 -2 17 -45 43 -94 61 -120 189 -364 192 -368 1 -2 22 7 45 19 63 32 166 59 225 59 65 0 146 -39 173 -84 11 -18 28 -60 36 -93 l15 -60 -60 -142 c-33 -77 -60 -144 -60 -147 0 -4 -27 -70 -59 -148 -33 -78 -74 -178 -91 -223 -17 -46 -34 -85 -38 -87 -4 -2 -20 28 -36 67 -27 67 -93 225 -244 587 l-61 145 -289 3 -288 2 -38 -92 c-22 -51 -54 -132 -72 -180 -18 -48 -53 -136 -77 -195 -25 -60 -80 -196 -122 -303 -42 -107 -105 -265 -140 -350 -34 -85 -66 -166 -70 -180 -4 -14 -34 -88 -66 -164 -33 -76 -59 -145 -59 -152 0 -12 61 -14 343 -14 l344 0 67 192 c37 106 97 274 132 373 35 99 64 188 64 198 0 9 3 17 8 17 6 0 58 -119 122 -285 82 -210 194 -482 202 -493 8 -9 73 -12 286 -10 l275 3 39 100 c41 104 108 269 198 485 28 69 60 147 69 173 10 27 21 43 24 35 3 -7 39 -97 81 -200 107 -268 189 -385 341 -488 171 -116 272 -145 500 -144 228 0 319 26 481 135 238 160 379 494 350 831 l-8 88 -195 0 -196 0 70 58 c57 47 232 193 267 223 11 10 -46 75 -133 152 -44 38 -103 77 -176 112 -164 81 -207 90 -420 90 -159 0 -189 -3 -260 -23 -103 -30 -235 -92 -300 -141 l-52 -39 -18 76 c-24 106 -99 320 -137 395 -108 215 -228 333 -400 395 -67 24 -88 26 -243 28 -93 1 -181 0 -195 -2z m143 -471 c-18 -2 -48 -2 -65 0 -18 2 -4 4 32 4 36 0 50 -2 33 -4z m1385 -270 c-10 -2 -28 -2 -40 0 -13 2 -5 4 17 4 22 1 32 -1 23 -4z m200 0 c-10 -2 -28 -2 -40 0 -13 2 -5 4 17 4 22 1 32 -1 23 -4z m-2200 -20 c-71 -2 -185 -2 -255 0 -71 1 -13 3 127 3 140 0 198 -2 128 -3z m2286 -442 c45 -23 104 -59 130 -81 l48 -40 -341 0 c-188 0 -341 3 -341 8 0 14 35 60 65 84 73 61 136 79 258 74 92 -3 103 -6 181 -45z m533 -344 c-2 -23 -3 -1 -3 48 0 50 1 68 3 42 2 -26 2 -67 0 -90z m-537 -192 c-27 -72 -97 -148 -148 -163 -15 -4 -65 -7 -112 -6 -98 0 -152 22 -193 76 -24 32 -57 91 -57 102 0 3 116 7 258 9 141 1 258 3 259 5 1 1 -2 -9 -7 -23z m-232 -232 c-10 -2 -26 -2 -35 0 -10 3 -2 5 17 5 19 0 27 -2 18 -5z m-583 -133 c27 -27 47 -50 44 -50 -3 0 -27 23 -54 50 -27 28 -47 50 -44 50 3 0 27 -22 54 -50z m965 -135 c0 -6 -76 -45 -87 -45 -4 1 12 12 37 25 50 27 50 27 50 20z m-1924 -53 c-132 -1 -243 1 -247 5 -5 5 103 6 239 3 l247 -5 -239 -3z"></path>  <path d="M4455 2243 c-11 -2 -43 -13 -71 -24 -73 -29 -82 -53 -52 -137 14 -39 32 -71 46 -80 20 -13 27 -13 61 2 57 26 101 18 129 -24 28 -42 28 -42 -43 -220 -206 -520 -237 -604 -233 -638 4 -35 38 -52 105 -52 77 0 96 13 121 78 11 31 36 98 55 147 18 50 53 143 77 208 24 64 47 117 51 117 4 0 11 -15 14 -32 20 -93 159 -485 177 -500 14 -13 37 -18 77 -18 103 0 129 34 97 127 l-16 46 60 -57 c33 -31 85 -69 117 -84 54 -25 67 -27 193 -27 120 0 141 3 187 24 29 13 58 29 64 37 16 20 29 17 29 -5 0 -41 35 -51 183 -51 133 0 139 1 162 25 14 13 26 31 26 40 2 19 3 24 16 55 5 14 22 60 37 103 16 42 31 79 35 82 4 2 29 -58 55 -133 27 -78 57 -145 68 -154 17 -15 41 -18 157 -18 150 0 181 9 181 55 l0 25 43 -30 c81 -57 255 -78 380 -45 69 18 97 34 160 94 l47 45 0 -52 c0 -86 12 -92 178 -92 76 0 142 4 148 10 6 6 29 4 63 -7 81 -23 213 -15 280 18 36 18 51 22 51 13 0 -16 31 -34 59 -34 19 0 21 -6 21 -64 0 -48 5 -70 19 -87 18 -23 24 -24 154 -24 170 0 177 4 177 107 l0 68 70 0 c86 0 110 18 110 81 l0 41 35 -31 c79 -69 179 -101 315 -101 144 0 225 27 327 109 l59 48 34 -40 c48 -57 111 -93 187 -107 78 -15 203 -8 283 15 68 20 158 73 166 98 6 20 -79 171 -107 190 -15 9 -9 17 38 60 70 65 83 91 83 173 0 146 -99 243 -281 274 -115 20 -291 -20 -406 -93 l-38 -24 -35 24 c-87 62 -212 103 -313 103 -106 0 -249 -51 -326 -115 l-31 -27 0 30 c0 61 -97 103 -237 103 -118 0 -195 -36 -244 -116 l-19 -30 0 51 c0 79 -10 84 -173 84 -187 0 -177 16 -177 -269 0 -156 -3 -220 -12 -229 -17 -17 -74 -15 -92 4 -14 13 -16 49 -16 235 0 278 13 259 -174 259 -133 0 -135 0 -155 -26 -12 -15 -21 -37 -21 -50 0 -22 -1 -22 -50 11 -89 60 -152 78 -270 79 -77 1 -120 -4 -160 -18 -161 -54 -268 -164 -293 -301 l-13 -68 -62 146 c-34 80 -67 159 -73 176 -17 49 -52 61 -177 61 -90 0 -114 -3 -131 -17 -12 -10 -39 -61 -60 -113 -21 -52 -54 -130 -74 -174 l-34 -78 -7 36 c-8 43 -38 66 -86 66 l-35 0 43 36 c58 49 57 79 -5 134 -151 133 -380 156 -567 57 -125 -65 -200 -175 -212 -307 l-7 -72 -29 78 c-16 44 -56 160 -89 259 -70 208 -122 325 -168 377 -51 58 -154 89 -236 71z m2795 -618 c0 -9 -9 -15 -22 -15 -21 0 -21 0 -2 15 24 18 24 18 24 0z m-1777 -12 c-13 -2 -35 -2 -50 0 -16 2 -5 4 22 4 28 0 40 -2 28 -4z m1480 0 c-13 -2 -35 -2 -50 0 -16 2 -5 4 22 4 28 0 40 -2 28 -4z m2031 -17 c49 -20 66 -51 66 -116 0 -81 -42 -120 -126 -120 -131 0 -170 169 -53 232 40 22 68 23 113 4z m-539 -2 c18 -5 20 -14 20 -115 l0 -109 -32 0 -33 0 0 115 c0 120 1 121 45 109z m-2982 -236 c-2 -5 -24 -8 -48 -8 -24 0 -46 3 -48 8 -3 4 19 7 48 7 29 0 51 -3 48 -7z m1490 0 c-2 -5 -24 -8 -48 -8 -24 0 -46 3 -48 8 -3 4 19 7 48 7 29 0 51 -3 48 -7z"></path>  <path d="M5577 1059 c-66 -10 -153 -43 -215 -82 -49 -32 -125 -130 -142 -185 -6 -20 -14 -44 -17 -52 -3 -8 -27 49 -53 128 -27 79 -56 152 -66 163 -15 17 -32 19 -149 19 -112 0 -136 -3 -153 -17 -12 -11 -37 -69 -60 -137 l-39 -119 -31 79 c-16 43 -36 98 -43 122 -19 66 -34 72 -177 72 -68 0 -131 -4 -141 -10 -22 -11 -33 -38 -123 -295 -168 -480 -160 -451 -130 -478 16 -14 43 -17 163 -17 101 0 150 4 161 13 14 11 64 147 71 196 5 31 14 35 22 9 4 -13 20 -63 37 -111 40 -115 49 -120 203 -115 139 4 145 8 181 127 42 139 41 139 81 15 19 -60 42 -115 51 -121 20 -16 284 -18 313 -3 12 7 19 21 19 40 l0 30 47 -30 c88 -56 218 -80 329 -61 124 22 212 76 273 167 l31 47 0 -204 c0 -266 -11 -249 164 -249 171 0 166 -4 166 149 0 102 2 112 18 107 156 -48 291 -19 395 85 67 68 101 135 118 234 21 133 -23 283 -110 373 -21 22 -69 55 -107 73 -63 31 -76 34 -164 34 -70 0 -104 -4 -129 -17 -30 -16 -36 -16 -54 -3 -16 11 -51 15 -138 15 -115 0 -118 -1 -138 -26 -14 -18 -21 -41 -21 -72 l0 -46 -32 31 c-102 96 -263 144 -411 122z m443 -252 c0 -32 -1 -33 -37 -29 l-37 5 35 28 c19 16 35 29 37 29 1 0 2 -15 2 -33z m489 -53 c27 -19 51 -71 51 -110 0 -40 -30 -93 -61 -109 -42 -22 -75 -18 -111 14 -31 28 -33 33 -33 101 0 66 2 74 28 96 33 29 91 32 126 8z m-846 -236 c-16 -8 -32 -8 -55 0 -32 9 -31 10 22 10 46 1 52 -1 33 -10z"></path>  </g> <g id="layer103" fill="#772b2b" stroke="none">  <path d="M1540 2543 c-88 -15 -320 -94 -320 -110 0 -3 41 -83 91 -180 74 -141 94 -173 108 -167 70 29 170 54 220 54 150 0 242 -79 275 -237 l15 -71 -63 -149 c-129 -301 -285 -669 -296 -697 -6 -16 -12 -27 -14 -25 -2 2 -76 184 -164 404 -88 220 -167 417 -176 438 l-16 37 -259 0 c-198 0 -260 -3 -264 -12 -3 -7 -91 -227 -195 -488 -234 -585 -392 -981 -399 -997 -4 -10 56 -13 279 -13 l285 0 66 188 c82 234 210 602 229 662 18 53 8 70 97 -160 33 -85 91 -236 129 -335 39 -99 84 -217 102 -263 18 -46 40 -87 50 -92 12 -6 108 -9 251 -8 l232 3 117 293 c140 346 239 584 250 595 4 5 13 -8 20 -30 28 -84 174 -442 207 -504 90 -174 256 -310 453 -371 66 -20 95 -23 240 -23 182 0 242 11 354 65 175 83 303 232 372 433 42 121 65 320 48 406 l-6 31 -549 0 c-345 0 -549 4 -549 10 0 5 10 35 21 67 90 239 453 286 700 92 20 -16 40 -29 44 -29 14 0 254 205 254 217 2 24 -145 144 -229 188 -145 74 -216 90 -415 90 -147 0 -181 -3 -250 -23 -115 -33 -251 -102 -317 -161 l-56 -51 -22 57 c-12 32 -48 135 -80 228 -94 280 -155 392 -274 503 -116 108 -223 142 -436 140 -74 0 -146 -3 -160 -5z m1874 -1630 c-21 -86 -50 -140 -104 -195 -71 -70 -135 -93 -244 -86 -150 10 -245 86 -297 236 -10 30 -19 59 -19 64 0 4 151 8 335 8 l335 0 -6 -27z"></path>  <path d="M4465 2183 c-11 -2 -37 -11 -58 -20 -28 -12 -36 -21 -31 -32 3 -9 11 -29 16 -44 9 -23 14 -27 32 -21 11 3 45 9 74 11 51 5 55 3 90 -34 20 -21 43 -55 50 -75 13 -36 10 -46 -141 -432 l-154 -396 56 0 56 0 120 325 c66 179 122 325 126 325 3 0 52 -145 110 -322 l105 -323 58 -3 c37 -2 56 1 52 7 -6 10 -91 252 -233 666 -71 208 -101 272 -151 321 -43 42 -114 61 -177 47z"></path>  <path d="M5366 1829 c-122 -18 -230 -91 -284 -194 -24 -45 -27 -61 -27 -150 0 -119 18 -167 89 -243 65 -70 139 -103 243 -110 198 -12 334 79 378 255 9 35 15 84 13 110 l-3 48 -257 3 c-142 1 -258 6 -258 11 0 23 50 79 90 99 74 37 189 22 251 -34 16 -14 23 -11 78 32 34 26 61 51 61 55 0 4 -26 26 -57 49 -86 61 -199 86 -317 69z m200 -430 c-20 -101 -142 -148 -238 -91 -28 16 -68 79 -68 106 0 14 19 16 156 16 l157 0 -7 -31z"></path>  <path d="M6848 1829 c-125 -18 -228 -91 -280 -197 -29 -59 -33 -75 -32 -147 1 -147 73 -263 201 -323 52 -24 70 -27 163 -27 80 0 117 5 155 19 64 25 147 104 173 164 25 59 46 174 38 207 l-6 25 -261 0 -260 0 23 43 c34 63 93 90 181 84 53 -3 78 -11 117 -35 l49 -31 56 46 c31 25 54 51 52 57 -7 21 -86 74 -139 94 -66 24 -155 32 -230 21z m204 -429 c-3 -30 -28 -66 -66 -94 -38 -29 -134 -29 -173 0 -33 24 -77 99 -68 114 4 7 61 10 158 8 l152 -3 -3 -25z"></path>  <path d="M8856 1829 c-126 -18 -246 -101 -296 -204 -19 -37 -26 -71 -28 -132 -4 -72 -1 -89 23 -140 64 -141 202 -223 376 -223 182 0 333 95 385 242 19 54 18 163 -2 222 -20 59 -105 153 -171 188 -83 45 -186 62 -287 47z m152 -174 c77 -33 112 -86 112 -170 0 -116 -75 -189 -195 -188 -65 0 -107 16 -141 55 -137 150 35 382 224 303z"></path>  <path d="M6063 1818 c-7 -9 -261 -593 -291 -670 -2 -5 47 -7 109 -6 l113 3 81 218 c44 119 82 217 85 217 3 0 41 -96 84 -212 43 -117 82 -217 86 -221 4 -4 54 -6 112 -5 l105 3 -146 340 -146 340 -91 3 c-65 2 -94 -1 -101 -10z"></path>  <path d="M8230 1815 c-43 -20 -68 -42 -89 -80 -13 -24 -17 -70 -21 -229 l-5 -200 -40 0 -40 -1 -3 -82 -3 -83 46 0 45 0 0 -85 0 -85 105 0 104 0 3 83 3 82 88 3 88 3 -3 82 -3 82 -85 1 -85 2 -3 152 c-3 193 2 205 86 198 32 -3 65 -9 75 -13 15 -6 17 0 17 69 l0 77 -37 16 c-54 23 -198 28 -243 8z"></path>  <path d="M9510 1814 c-58 -15 -180 -72 -180 -84 0 -9 80 -120 87 -120 3 0 35 14 72 32 82 39 206 52 234 23 24 -23 21 -52 -5 -69 -13 -8 -66 -26 -118 -41 -150 -42 -208 -84 -231 -168 -13 -51 2 -118 38 -166 58 -75 212 -110 343 -77 72 18 160 55 160 68 0 6 -59 104 -75 126 -1 1 -28 -10 -60 -24 -34 -16 -83 -29 -120 -32 -54 -4 -65 -2 -84 17 -12 12 -18 27 -15 36 8 20 64 49 139 71 174 50 235 106 235 216 -1 131 -110 209 -289 207 -42 0 -101 -7 -131 -15z"></path>  <path d="M7320 1480 l0 -340 105 0 105 0 0 46 0 46 37 -32 c56 -49 109 -70 182 -70 89 0 139 17 187 66 65 65 69 85 69 369 l0 250 -107 3 -108 3 0 -216 c0 -234 -5 -258 -55 -285 -35 -19 -119 -16 -151 5 -47 31 -54 66 -54 290 l0 205 -105 0 -105 0 0 -340z"></path>  <path d="M5530 986 c-110 -31 -189 -95 -237 -194 -24 -49 -28 -69 -28 -142 0 -71 5 -95 27 -142 75 -161 245 -242 427 -204 155 33 247 133 273 299 6 41 8 82 5 91 -6 14 -35 16 -262 16 -253 0 -255 0 -255 21 0 12 17 38 38 59 69 69 168 76 270 19 l52 -29 60 47 c66 53 66 54 -8 105 -91 63 -247 86 -362 54z m260 -401 c0 -20 -33 -75 -59 -100 -29 -27 -39 -30 -96 -30 -49 0 -70 5 -92 21 -25 19 -72 88 -73 107 0 4 72 7 160 7 88 0 160 -2 160 -5z"></path>  <path d="M6415 988 c-16 -6 -51 -26 -78 -44 -26 -19 -49 -34 -52 -34 -3 0 -5 18 -5 40 l0 40 -95 0 -95 0 0 -465 0 -465 95 0 95 0 0 171 0 171 39 -35 c49 -44 67 -54 126 -67 53 -12 149 1 198 27 55 28 114 92 143 156 26 56 29 72 29 167 -1 95 -3 111 -29 164 -56 115 -147 176 -271 182 -38 2 -83 -1 -100 -8z m88 -162 c50 -18 76 -42 98 -91 42 -91 12 -205 -65 -250 -94 -55 -197 -18 -241 87 -40 98 8 221 100 253 50 17 60 18 108 1z"></path>  <path d="M4325 978 c-10 -27 -179 -508 -205 -585 l-29 -83 113 0 113 0 58 195 c32 107 61 195 65 195 3 0 38 -89 76 -197 l70 -198 93 0 c73 0 96 3 102 15 5 8 39 100 76 203 38 108 69 183 73 175 4 -7 33 -97 66 -201 l58 -187 108 0 c59 0 108 2 108 4 0 3 -96 275 -193 546 l-44 125 -101 3 -100 3 -20 -53 c-10 -29 -43 -119 -72 -200 -29 -82 -56 -148 -59 -148 -4 0 -30 66 -60 148 -29 81 -62 171 -73 200 l-19 52 -100 0 c-71 0 -101 -4 -104 -12z"></path>  </g> <g id="layer104" fill="#a32c2e" stroke="none">  <path d="M1540 2540 c-71 -11 -212 -56 -272 -86 l-46 -23 59 -113 c33 -62 74 -141 92 -176 23 -46 35 -61 47 -56 8 4 44 18 80 32 132 50 268 26 346 -60 42 -47 58 -81 74 -164 l12 -61 -55 -129 c-30 -71 -105 -248 -167 -394 -122 -286 -143 -343 -130 -356 19 -20 238 -547 234 -562 -12 -47 71 144 178 407 65 163 152 366 193 451 40 85 97 207 125 270 29 63 70 154 92 203 l39 87 -52 148 c-120 342 -244 498 -448 563 -75 24 -304 35 -401 19z"></path>  <path d="M4465 2183 c-11 -2 -37 -11 -58 -20 -28 -12 -36 -21 -31 -32 3 -9 11 -29 16 -44 9 -23 14 -27 32 -21 11 3 45 9 74 11 51 5 55 3 90 -34 20 -21 43 -55 50 -75 13 -36 10 -46 -141 -432 l-154 -396 56 0 56 0 120 325 c66 179 122 325 126 325 3 0 52 -145 110 -322 l105 -323 58 -3 c37 -2 56 1 52 7 -6 10 -91 252 -233 666 -71 208 -101 272 -151 321 -43 42 -114 61 -177 47z"></path>  <path d="M2963 1846 c-133 -26 -269 -82 -362 -150 -63 -47 -76 -63 -63 -78 5 -7 58 -160 118 -340 l108 -327 75 -7 c41 -4 189 -3 329 1 l255 7 -6 -37 c-8 -49 -57 -152 -91 -192 -15 -18 -56 -47 -91 -64 -62 -30 -68 -31 -162 -27 -74 3 -108 9 -138 25 -83 43 -163 158 -184 264 -4 24 -41 136 -80 249 -40 113 -91 259 -113 325 -23 66 -44 122 -48 125 -3 3 -17 33 -29 68 -23 60 -41 88 -41 60 0 -25 -244 -537 -254 -531 -6 4 -6 -1 -2 -13 5 -10 21 -53 36 -94 77 -205 175 -431 212 -487 64 -100 183 -205 291 -258 138 -67 196 -80 372 -80 127 0 162 4 230 23 113 33 205 85 290 164 168 157 249 368 243 629 l-3 114 -552 3 -552 2 21 60 c36 108 134 191 257 220 75 18 221 8 292 -19 47 -18 138 -72 194 -115 8 -6 53 26 138 98 70 59 127 111 127 116 0 13 -103 103 -164 144 -133 88 -262 126 -451 132 -84 2 -155 -1 -202 -10z"></path>  <path d="M389 1103 c-162 -406 -295 -746 -297 -756 -3 -16 15 -17 276 -17 l279 0 71 208 c168 492 234 677 241 682 4 3 8 12 8 20 0 8 28 89 63 180 131 350 150 402 150 411 0 5 -110 9 -248 9 l-248 0 -295 -737z"></path>  <path d="M5366 1829 c-122 -18 -230 -91 -284 -194 -24 -45 -27 -61 -27 -150 0 -119 18 -167 89 -243 65 -70 139 -103 243 -110 198 -12 334 79 378 255 9 35 15 84 13 110 l-3 48 -257 3 c-142 1 -258 6 -258 11 0 23 50 79 90 99 74 37 189 22 251 -34 16 -14 23 -11 78 32 34 26 61 51 61 55 0 4 -26 26 -57 49 -86 61 -199 86 -317 69z m200 -430 c-20 -101 -142 -148 -238 -91 -28 16 -68 79 -68 106 0 14 19 16 156 16 l157 0 -7 -31z"></path>  <path d="M6848 1829 c-125 -18 -228 -91 -280 -197 -29 -59 -33 -75 -32 -147 1 -147 73 -263 201 -323 52 -24 70 -27 163 -27 80 0 117 5 155 19 64 25 147 104 173 164 25 59 46 174 38 207 l-6 25 -261 0 -260 0 23 43 c34 63 93 90 181 84 53 -3 78 -11 117 -35 l49 -31 56 46 c31 25 54 51 52 57 -7 21 -86 74 -139 94 -66 24 -155 32 -230 21z m204 -429 c-3 -30 -28 -66 -66 -94 -38 -29 -134 -29 -173 0 -33 24 -77 99 -68 114 4 7 61 10 158 8 l152 -3 -3 -25z"></path>  <path d="M8856 1829 c-126 -18 -246 -101 -296 -204 -19 -37 -26 -71 -28 -132 -4 -72 -1 -89 23 -140 64 -141 202 -223 376 -223 182 0 333 95 385 242 19 54 18 163 -2 222 -20 59 -105 153 -171 188 -83 45 -186 62 -287 47z m152 -174 c77 -33 112 -86 112 -170 0 -116 -75 -189 -195 -188 -65 0 -107 16 -141 55 -137 150 35 382 224 303z"></path>  <path d="M6063 1818 c-7 -9 -261 -593 -291 -670 -2 -5 47 -7 109 -6 l113 3 81 218 c44 119 82 217 85 217 3 0 41 -96 84 -212 43 -117 82 -217 86 -221 4 -4 54 -6 112 -5 l105 3 -146 340 -146 340 -91 3 c-65 2 -94 -1 -101 -10z"></path>  <path d="M8230 1815 c-43 -20 -68 -42 -89 -80 -13 -24 -17 -70 -21 -229 l-5 -200 -40 0 -40 -1 -3 -82 -3 -83 46 0 45 0 0 -85 0 -85 105 0 104 0 3 83 3 82 88 3 88 3 -3 82 -3 82 -85 1 -85 2 -3 152 c-3 193 2 205 86 198 32 -3 65 -9 75 -13 15 -6 17 0 17 69 l0 77 -37 16 c-54 23 -198 28 -243 8z"></path>  <path d="M9510 1814 c-58 -15 -180 -72 -180 -84 0 -9 80 -120 87 -120 3 0 35 14 72 32 82 39 206 52 234 23 24 -23 21 -52 -5 -69 -13 -8 -66 -26 -118 -41 -150 -42 -208 -84 -231 -168 -13 -51 2 -118 38 -166 58 -75 212 -110 343 -77 72 18 160 55 160 68 0 6 -59 104 -75 126 -1 1 -28 -10 -60 -24 -34 -16 -83 -29 -120 -32 -54 -4 -65 -2 -84 17 -12 12 -18 27 -15 36 8 20 64 49 139 71 174 50 235 106 235 216 -1 131 -110 209 -289 207 -42 0 -101 -7 -131 -15z"></path>  <path d="M7320 1480 l0 -340 105 0 105 0 0 46 0 46 37 -32 c56 -49 109 -70 182 -70 89 0 139 17 187 66 65 65 69 85 69 369 l0 250 -107 3 -108 3 0 -216 c0 -234 -5 -258 -55 -285 -35 -19 -119 -16 -151 5 -47 31 -54 66 -54 290 l0 205 -105 0 -105 0 0 -340z"></path>  <path d="M1165 1642 c-27 -70 -80 -203 -116 -296 l-67 -169 38 -101 c42 -112 265 -688 280 -723 10 -23 10 -23 254 -23 239 0 244 0 249 21 3 12 3 18 0 15 -4 -4 -61 130 -128 296 -361 896 -438 1084 -448 1095 -9 10 -24 -17 -62 -115z"></path>  <path d="M5530 986 c-110 -31 -189 -95 -237 -194 -24 -49 -28 -69 -28 -142 0 -71 5 -95 27 -142 75 -161 245 -242 427 -204 155 33 247 133 273 299 6 41 8 82 5 91 -6 14 -35 16 -262 16 -253 0 -255 0 -255 21 0 12 17 38 38 59 69 69 168 76 270 19 l52 -29 60 47 c66 53 66 54 -8 105 -91 63 -247 86 -362 54z m260 -401 c0 -20 -33 -75 -59 -100 -29 -27 -39 -30 -96 -30 -49 0 -70 5 -92 21 -25 19 -72 88 -73 107 0 4 72 7 160 7 88 0 160 -2 160 -5z"></path>  <path d="M6415 988 c-16 -6 -51 -26 -78 -44 -26 -19 -49 -34 -52 -34 -3 0 -5 18 -5 40 l0 40 -95 0 -95 0 0 -465 0 -465 95 0 95 0 0 171 0 171 39 -35 c49 -44 67 -54 126 -67 53 -12 149 1 198 27 55 28 114 92 143 156 26 56 29 72 29 167 -1 95 -3 111 -29 164 -56 115 -147 176 -271 182 -38 2 -83 -1 -100 -8z m88 -162 c50 -18 76 -42 98 -91 42 -91 12 -205 -65 -250 -94 -55 -197 -18 -241 87 -40 98 8 221 100 253 50 17 60 18 108 1z"></path>  <path d="M4325 978 c-10 -27 -179 -508 -205 -585 l-29 -83 113 0 113 0 58 195 c32 107 61 195 65 195 3 0 38 -89 76 -197 l70 -198 93 0 c73 0 96 3 102 15 5 8 39 100 76 203 38 108 69 183 73 175 4 -7 33 -97 66 -201 l58 -187 108 0 c59 0 108 2 108 4 0 3 -96 275 -193 546 l-44 125 -101 3 -100 3 -20 -53 c-10 -29 -43 -119 -72 -200 -29 -82 -56 -148 -59 -148 -4 0 -30 66 -60 148 -29 81 -62 171 -73 200 l-19 52 -100 0 c-71 0 -101 -4 -104 -12z"></path>  </g> <g id="layer105" fill="#eb3136" stroke="none">  <path d="M1590 2540 c-41 -4 -103 -15 -137 -23 -82 -21 -223 -77 -223 -89 0 -7 166 -327 175 -336 2 -2 34 8 70 23 77 31 182 42 241 26 62 -17 131 -68 161 -119 15 -24 34 -77 43 -115 l17 -71 -33 -76 c-151 -354 -274 -651 -274 -663 0 -7 4 -17 9 -22 4 -6 22 -44 39 -85 16 -41 66 -160 111 -263 58 -134 80 -195 75 -210 -19 -61 14 13 111 253 59 146 185 438 281 648 96 211 174 391 174 401 0 22 -90 272 -123 342 -96 200 -233 326 -398 363 -83 19 -225 26 -319 16z"></path>  <path d="M4465 2183 c-11 -2 -37 -11 -58 -20 -28 -12 -36 -21 -31 -32 3 -9 11 -29 16 -44 9 -23 14 -27 32 -21 11 3 45 9 74 11 51 5 55 3 90 -34 20 -21 43 -55 50 -75 13 -36 10 -46 -141 -432 l-154 -396 56 0 56 0 120 325 c66 179 122 325 126 325 3 0 52 -145 110 -322 l105 -323 58 -3 c37 -2 56 1 52 7 -6 10 -91 252 -233 666 -71 208 -101 272 -151 321 -43 42 -114 61 -177 47z"></path>  <path d="M2970 1843 c-111 -19 -274 -81 -336 -128 l-33 -25 65 -192 c36 -106 68 -211 72 -233 l8 -40 18 51 c57 155 187 237 376 237 128 0 230 -34 336 -113 l50 -38 128 107 127 106 -69 65 c-159 151 -328 211 -584 209 -73 -1 -144 -4 -158 -6z"></path>  <path d="M5366 1829 c-122 -18 -230 -91 -284 -194 -24 -45 -27 -61 -27 -150 0 -119 18 -167 89 -243 65 -70 139 -103 243 -110 198 -12 334 79 378 255 9 35 15 84 13 110 l-3 48 -257 3 c-142 1 -258 6 -258 11 0 23 50 79 90 99 74 37 189 22 251 -34 16 -14 23 -11 78 32 34 26 61 51 61 55 0 4 -26 26 -57 49 -86 61 -199 86 -317 69z m200 -430 c-20 -101 -142 -148 -238 -91 -28 16 -68 79 -68 106 0 14 19 16 156 16 l157 0 -7 -31z"></path>  <path d="M6848 1829 c-125 -18 -228 -91 -280 -197 -29 -59 -33 -75 -32 -147 1 -147 73 -263 201 -323 52 -24 70 -27 163 -27 80 0 117 5 155 19 64 25 147 104 173 164 25 59 46 174 38 207 l-6 25 -261 0 -260 0 23 43 c34 63 93 90 181 84 53 -3 78 -11 117 -35 l49 -31 56 46 c31 25 54 51 52 57 -7 21 -86 74 -139 94 -66 24 -155 32 -230 21z m204 -429 c-3 -30 -28 -66 -66 -94 -38 -29 -134 -29 -173 0 -33 24 -77 99 -68 114 4 7 61 10 158 8 l152 -3 -3 -25z"></path>  <path d="M8856 1829 c-126 -18 -246 -101 -296 -204 -19 -37 -26 -71 -28 -132 -4 -72 -1 -89 23 -140 64 -141 202 -223 376 -223 182 0 333 95 385 242 19 54 18 163 -2 222 -20 59 -105 153 -171 188 -83 45 -186 62 -287 47z m152 -174 c77 -33 112 -86 112 -170 0 -116 -75 -189 -195 -188 -65 0 -107 16 -141 55 -137 150 35 382 224 303z"></path>  <path d="M405 1133 c-153 -384 -287 -719 -297 -745 l-18 -48 278 0 279 0 98 288 c115 336 267 765 359 1012 37 96 66 178 66 182 0 5 -109 8 -243 8 l-243 0 -279 -697z"></path>  <path d="M6063 1818 c-7 -9 -261 -593 -291 -670 -2 -5 47 -7 109 -6 l113 3 81 218 c44 119 82 217 85 217 3 0 41 -96 84 -212 43 -117 82 -217 86 -221 4 -4 54 -6 112 -5 l105 3 -146 340 -146 340 -91 3 c-65 2 -94 -1 -101 -10z"></path>  <path d="M8230 1815 c-43 -20 -68 -42 -89 -80 -13 -24 -17 -70 -21 -229 l-5 -200 -40 0 -40 -1 -3 -82 -3 -83 46 0 45 0 0 -85 0 -85 105 0 104 0 3 83 3 82 88 3 88 3 -3 82 -3 82 -85 1 -85 2 -3 152 c-3 193 2 205 86 198 32 -3 65 -9 75 -13 15 -6 17 0 17 69 l0 77 -37 16 c-54 23 -198 28 -243 8z"></path>  <path d="M9510 1814 c-58 -15 -180 -72 -180 -84 0 -9 80 -120 87 -120 3 0 35 14 72 32 82 39 206 52 234 23 24 -23 21 -52 -5 -69 -13 -8 -66 -26 -118 -41 -150 -42 -208 -84 -231 -168 -13 -51 2 -118 38 -166 58 -75 212 -110 343 -77 72 18 160 55 160 68 0 6 -59 104 -75 126 -1 1 -28 -10 -60 -24 -34 -16 -83 -29 -120 -32 -54 -4 -65 -2 -84 17 -12 12 -18 27 -15 36 8 20 64 49 139 71 174 50 235 106 235 216 -1 131 -110 209 -289 207 -42 0 -101 -7 -131 -15z"></path>  <path d="M7320 1480 l0 -340 105 0 105 0 0 46 0 46 37 -32 c56 -49 109 -70 182 -70 89 0 139 17 187 66 65 65 69 85 69 369 l0 250 -107 3 -108 3 0 -216 c0 -234 -5 -258 -55 -285 -35 -19 -119 -16 -151 5 -47 31 -54 66 -54 290 l0 205 -105 0 -105 0 0 -340z"></path>  <path d="M1244 1668 c0 -27 -47 -157 -93 -263 -5 -11 -33 -82 -63 -158 -33 -86 -57 -135 -65 -133 -7 3 3 -36 22 -89 62 -171 257 -670 268 -683 14 -18 492 -18 484 1 -7 15 -190 471 -377 937 -78 195 -150 370 -159 388 l-17 33 0 -33z"></path>  <path d="M2482 1640 c1 -20 -219 -510 -238 -529 -3 -3 -10 1 -15 9 -14 19 -11 13 51 -150 106 -275 130 -323 210 -419 93 -111 238 -202 389 -243 107 -29 323 -29 433 0 270 73 461 277 523 562 9 41 19 135 22 208 l6 132 -551 0 -550 0 24 -72 c13 -40 31 -99 41 -130 l16 -58 294 0 293 0 -6 -27 c-50 -206 -183 -315 -367 -300 -159 14 -270 121 -312 302 -9 35 -20 77 -26 92 -6 16 -51 141 -99 278 -96 274 -140 385 -138 345z"></path>  <path d="M5530 986 c-110 -31 -189 -95 -237 -194 -24 -49 -28 -69 -28 -142 0 -71 5 -95 27 -142 75 -161 245 -242 427 -204 155 33 247 133 273 299 6 41 8 82 5 91 -6 14 -35 16 -262 16 -253 0 -255 0 -255 21 0 12 17 38 38 59 69 69 168 76 270 19 l52 -29 60 47 c66 53 66 54 -8 105 -91 63 -247 86 -362 54z m260 -401 c0 -20 -33 -75 -59 -100 -29 -27 -39 -30 -96 -30 -49 0 -70 5 -92 21 -25 19 -72 88 -73 107 0 4 72 7 160 7 88 0 160 -2 160 -5z"></path>  <path d="M6415 988 c-16 -6 -51 -26 -78 -44 -26 -19 -49 -34 -52 -34 -3 0 -5 18 -5 40 l0 40 -95 0 -95 0 0 -465 0 -465 95 0 95 0 0 171 0 171 39 -35 c49 -44 67 -54 126 -67 53 -12 149 1 198 27 55 28 114 92 143 156 26 56 29 72 29 167 -1 95 -3 111 -29 164 -56 115 -147 176 -271 182 -38 2 -83 -1 -100 -8z m88 -162 c50 -18 76 -42 98 -91 42 -91 12 -205 -65 -250 -94 -55 -197 -18 -241 87 -40 98 8 221 100 253 50 17 60 18 108 1z"></path>  <path d="M4325 978 c-10 -27 -179 -508 -205 -585 l-29 -83 113 0 113 0 58 195 c32 107 61 195 65 195 3 0 38 -89 76 -197 l70 -198 93 0 c73 0 96 3 102 15 5 8 39 100 76 203 38 108 69 183 73 175 4 -7 33 -97 66 -201 l58 -187 108 0 c59 0 108 2 108 4 0 3 -96 275 -193 546 l-44 125 -101 3 -100 3 -20 -53 c-10 -29 -43 -119 -72 -200 -29 -82 -56 -148 -59 -148 -4 0 -30 66 -60 148 -29 81 -62 171 -73 200 l-19 52 -100 0 c-71 0 -101 -4 -104 -12z"></path>  </g> <g id="layer106" fill="#fefefe" stroke="none">  <path d="M4465 2183 c-11 -2 -37 -11 -58 -20 -28 -12 -36 -21 -31 -32 3 -9 11 -29 16 -44 9 -23 14 -27 32 -21 11 3 45 9 74 11 51 5 55 3 90 -34 20 -21 43 -55 50 -75 13 -36 10 -46 -141 -432 l-154 -396 56 0 56 0 120 325 c66 179 122 325 126 325 3 0 52 -145 110 -322 l105 -323 58 -3 c37 -2 56 1 52 7 -6 10 -91 252 -233 666 -71 208 -101 272 -151 321 -43 42 -114 61 -177 47z"></path>  <path d="M5366 1829 c-122 -18 -230 -91 -284 -194 -24 -45 -27 -61 -27 -150 0 -119 18 -167 89 -243 65 -70 139 -103 243 -110 198 -12 334 79 378 255 9 35 15 84 13 110 l-3 48 -257 3 c-142 1 -258 6 -258 11 0 23 50 79 90 99 74 37 189 22 251 -34 16 -14 23 -11 78 32 34 26 61 51 61 55 0 4 -26 26 -57 49 -86 61 -199 86 -317 69z m200 -430 c-20 -101 -142 -148 -238 -91 -28 16 -68 79 -68 106 0 14 19 16 156 16 l157 0 -7 -31z"></path>  <path d="M6848 1829 c-125 -18 -228 -91 -280 -197 -29 -59 -33 -75 -32 -147 1 -147 73 -263 201 -323 52 -24 70 -27 163 -27 80 0 117 5 155 19 64 25 147 104 173 164 25 59 46 174 38 207 l-6 25 -261 0 -260 0 23 43 c34 63 93 90 181 84 53 -3 78 -11 117 -35 l49 -31 56 46 c31 25 54 51 52 57 -7 21 -86 74 -139 94 -66 24 -155 32 -230 21z m204 -429 c-3 -30 -28 -66 -66 -94 -38 -29 -134 -29 -173 0 -33 24 -77 99 -68 114 4 7 61 10 158 8 l152 -3 -3 -25z"></path>  <path d="M8856 1829 c-126 -18 -246 -101 -296 -204 -19 -37 -26 -71 -28 -132 -4 -72 -1 -89 23 -140 64 -141 202 -223 376 -223 182 0 333 95 385 242 19 54 18 163 -2 222 -20 59 -105 153 -171 188 -83 45 -186 62 -287 47z m152 -174 c77 -33 112 -86 112 -170 0 -116 -75 -189 -195 -188 -65 0 -107 16 -141 55 -137 150 35 382 224 303z"></path>  <path d="M6063 1818 c-7 -9 -261 -593 -291 -670 -2 -5 47 -7 109 -6 l113 3 81 218 c44 119 82 217 85 217 3 0 41 -96 84 -212 43 -117 82 -217 86 -221 4 -4 54 -6 112 -5 l105 3 -146 340 -146 340 -91 3 c-65 2 -94 -1 -101 -10z"></path>  <path d="M8230 1815 c-43 -20 -68 -42 -89 -80 -13 -24 -17 -70 -21 -229 l-5 -200 -40 0 -40 -1 -3 -82 -3 -83 46 0 45 0 0 -85 0 -85 105 0 104 0 3 83 3 82 88 3 88 3 -3 82 -3 82 -85 1 -85 2 -3 152 c-3 193 2 205 86 198 32 -3 65 -9 75 -13 15 -6 17 0 17 69 l0 77 -37 16 c-54 23 -198 28 -243 8z"></path>  <path d="M9510 1814 c-58 -15 -180 -72 -180 -84 0 -9 80 -120 87 -120 3 0 35 14 72 32 82 39 206 52 234 23 24 -23 21 -52 -5 -69 -13 -8 -66 -26 -118 -41 -150 -42 -208 -84 -231 -168 -13 -51 2 -118 38 -166 58 -75 212 -110 343 -77 72 18 160 55 160 68 0 6 -59 104 -75 126 -1 1 -28 -10 -60 -24 -34 -16 -83 -29 -120 -32 -54 -4 -65 -2 -84 17 -12 12 -18 27 -15 36 8 20 64 49 139 71 174 50 235 106 235 216 -1 131 -110 209 -289 207 -42 0 -101 -7 -131 -15z"></path>  <path d="M7320 1480 l0 -340 105 0 105 0 0 46 0 46 37 -32 c56 -49 109 -70 182 -70 89 0 139 17 187 66 65 65 69 85 69 369 l0 250 -107 3 -108 3 0 -216 c0 -234 -5 -258 -55 -285 -35 -19 -119 -16 -151 5 -47 31 -54 66 -54 290 l0 205 -105 0 -105 0 0 -340z"></path>  <path d="M5530 986 c-110 -31 -189 -95 -237 -194 -24 -49 -28 -69 -28 -142 0 -71 5 -95 27 -142 75 -161 245 -242 427 -204 155 33 247 133 273 299 6 41 8 82 5 91 -6 14 -35 16 -262 16 -253 0 -255 0 -255 21 0 12 17 38 38 59 69 69 168 76 270 19 l52 -29 60 47 c66 53 66 54 -8 105 -91 63 -247 86 -362 54z m260 -401 c0 -20 -33 -75 -59 -100 -29 -27 -39 -30 -96 -30 -49 0 -70 5 -92 21 -25 19 -72 88 -73 107 0 4 72 7 160 7 88 0 160 -2 160 -5z"></path>  <path d="M6415 988 c-16 -6 -51 -26 -78 -44 -26 -19 -49 -34 -52 -34 -3 0 -5 18 -5 40 l0 40 -95 0 -95 0 0 -465 0 -465 95 0 95 0 0 171 0 171 39 -35 c49 -44 67 -54 126 -67 53 -12 149 1 198 27 55 28 114 92 143 156 26 56 29 72 29 167 -1 95 -3 111 -29 164 -56 115 -147 176 -271 182 -38 2 -83 -1 -100 -8z m88 -162 c50 -18 76 -42 98 -91 42 -91 12 -205 -65 -250 -94 -55 -197 -18 -241 87 -40 98 8 221 100 253 50 17 60 18 108 1z"></path>  <path d="M4325 978 c-10 -27 -179 -508 -205 -585 l-29 -83 113 0 113 0 58 195 c32 107 61 195 65 195 3 0 38 -89 76 -197 l70 -198 93 0 c73 0 96 3 102 15 5 8 39 100 76 203 38 108 69 183 73 175 4 -7 33 -97 66 -201 l58 -187 108 0 c59 0 108 2 108 4 0 3 -96 275 -193 546 l-44 125 -101 3 -100 3 -20 -53 c-10 -29 -43 -119 -72 -200 -29 -82 -56 -148 -59 -148 -4 0 -30 66 -60 148 -29 81 -62 171 -73 200 l-19 52 -100 0 c-71 0 -101 -4 -104 -12z">

</path>
</g>
</svg>
