<svg xmlns="http://www.w3.org/2000/svg" width="88" height="39" viewBox="0 0 88 39">
  <g fill="none" fill-rule="evenodd">
    <polygon fill="#FFF" points="9.187 3.405 9.187 38.025 14.685 38.025 14.685 22.874 30.634 22.874 30.634 18.558 14.685 18.558 14.685 7.72 32.533 7.72 32.533 3.405"/>
    <path fill="#FFF" d="M42.9317714 33.9623471C42.4986286 33.6962294 42.2483429 33.1766118 42.1820571 32.4080824 42.1477714 32.0054647 42.1317714 31.6039941 42.1317714 31.2025235L42.1317714 29.8983176 42.1317714 1.14728824 36.6323429 1.14728824 36.6323429 30.0485824 36.6323429 32.1809647C36.6323429 32.8003765 36.6494857 33.3601412 36.6826286 33.8614059 36.7832 35.5682294 37.2826286 36.7405235 38.1820571 37.3748471 39.0826286 38.0103176 40.2654857 38.3292 41.7317714 38.3292 42.3649143 38.3292 42.9820571 38.3028176 43.5820571 38.2523471 44.1820571 38.2030235 44.7649143 38.1445235 45.3317714 38.0779941L45.3317714 34.2135529C44.1649143 34.3144941 43.3649143 34.2307588 42.9317714 33.9623471M64.3854857 28.0411147C64.3854857 30.2159382 63.8357714 31.8722912 62.7352 33.0090265 61.6357714 34.1457618 60.2186286 34.7147029 58.4860571 34.7147029 57.0197714 34.7147029 55.8620571 34.3809088 55.0117714 33.7110265 54.1614857 33.0422912 53.7374857 32.00535 53.7374857 30.6002029 53.7374857 28.5607324 54.7032 27.1475559 56.6369143 26.3606735 58.5694857 25.5749382 61.1523429 25.3157029 64.3854857 25.5829676L64.3854857 28.0411147zM69.8849143 31.2540265L69.8849143 21.8699382C69.8849143 21.2344676 69.8757714 20.5898206 69.8597714 19.9382912 69.8426286 19.2856147 69.8014857 18.6765265 69.7352 18.1075853 69.6346286 16.9697029 69.3763429 15.9488206 68.9592 15.0460853 68.5432 14.1422029 67.9352 13.3644971 67.1352 12.7129676 66.3352 12.0602912 65.3272 11.5590265 64.1100571 11.2068794 62.8929143 10.8558794 61.4357714 10.6803794 59.7363429 10.6803794 58.2369143 10.6803794 56.8437714 10.8811147 55.5614857 11.2837324 54.2780571 11.6840559 53.1614857 12.2782324 52.2117714 13.0639676 51.2620571 13.85085 50.5123429 14.8029088 49.9626286 15.9247324 49.4117714 17.0454088 49.0872 18.3404382 48.9877714 19.8121147L54.4872 19.8121147C54.6529143 18.14085 55.1534857 16.8699088 55.9866286 15.9992912 56.8186286 15.1298206 58.0357714 14.6950853 59.6357714 14.6950853 61.2357714 14.6950853 62.3934857 15.0380559 63.1100571 15.7239971 63.8266286 16.4087912 64.2186286 17.2874382 64.2860571 18.3587912 64.3523429 18.8600559 64.3854857 19.3441147 64.3854857 19.8121147L64.3854857 21.2688794 64.3854857 21.9204088 62.6860571 21.9204088C57.6197714 21.9204088 53.8940571 22.6981147 51.5123429 24.2523794 49.1283429 25.8089382 47.9374857 28.0743794 47.9374857 31.0521441 47.9374857 32.2909676 48.1626286 33.3852618 48.6129143 34.3384676 49.0620571 35.2916735 49.6792 36.0946147 50.4620571 36.7472912 51.2449143 37.3988206 52.1534857 37.89435 53.1866286 38.2281441 54.2197714 38.5619382 55.3192 38.7294088 56.4860571 38.7294088 57.7523429 38.7294088 58.9443429 38.6043794 60.0609143 38.3531735 61.1774857 38.1019676 62.1854857 37.6592029 63.0860571 37.0225853L64.4346286 34.1641147 64.9352 38.0262618 70.3843429 38.0262618C70.1843429 36.5213206 70.0517714 35.2675853 69.9843429 34.2639088 69.9169143 33.2602324 69.8849143 32.2565559 69.8849143 31.2540265L69.8849143 31.2540265zM81.7682286 15.4481294L86.9670857 15.4481294 86.9670857 11.5836882 81.7682286 11.5836882 81.7682286 5.21177647 76.2688 5.21177647 76.2688 11.5836882 72.5190857 11.5836882 72.5190857 15.4481294 76.2688 15.4481294 76.2688 29.8987765 76.2688 31.9061294C76.2688 32.4750706 76.2859429 32.9923941 76.3190857 33.4603941 76.4539429 35.2348941 76.9990857 36.5207471 77.9590857 37.3248353 78.9168 38.1266294 80.4539429 38.5281 82.5682286 38.5281 83.8676571 38.5281 85.2185143 38.4283059 86.6173714 38.2275706L86.6173714 34.4147471C84.8173714 34.5822176 83.5933714 34.4824235 82.9430857 34.1119235 82.2928 33.7448647 81.9179429 32.9098059 81.8185143 31.6044529 81.7842286 31.2362471 81.7682286 30.8944235 81.7682286 30.5755412L81.7682286 29.3963647 81.7682286 15.4481294z"/>
    <polygon fill="#FF5A5A" points="0 29.372 5.499 29.372 5.499 12.061 0 12.061"/>
  </g>
</svg>
