<svg xmlns="http://www.w3.org/2000/svg" width="159" height="45" viewBox="0 0 159 45">
  <g fill="none" fill-rule="evenodd">
    <polygon fill="#202028" fill-rule="nonzero" points="11.99 44.4 18.97 44.4 18.97 25.24 39.2 25.24 39.2 19.78 18.97 19.78 18.97 6.08 41.61 6.08 41.61 .62 11.99 .62"/>
    <path fill="#202028" fill-rule="nonzero" d="M54.81 38.87C54.1605293 38.4147937 53.7844826 37.6627003 53.81 36.87 53.77 36.3633333 53.75 35.8533333 53.75 35.34L53.75.68 46.75.68 46.75 36.62C46.75 37.41 46.75 38.11 46.81 38.75 46.9433333 40.91 47.5766667 42.39 48.71 43.19 50.0526537 44.048609 51.6278773 44.47123 53.22 44.4 54.02 44.4 54.8 44.4 55.57 44.3 56.34 44.2 57.07 44.16 57.79 44.08L57.79 39.19C56.7863712 39.3666544 55.7532402 39.2557142 54.81 38.87L54.81 38.87zM89 34.89L89 23C89 22.19 89 21.38 89 20.55 89 19.72 88.93 18.96 88.84 18.24 88.7382285 16.9010005 88.3996459 15.5906857 87.84 14.37 87.3156205 13.2001061 86.5203843 12.1717835 85.52 11.37 84.3854327 10.4811982 83.0825611 9.83146335 81.69 9.46 79.8788298 8.98753389 78.0114618 8.7654685 76.14 8.8 74.344954 8.78218036 72.5577046 9.03846519 70.84 9.56 69.2904763 10.0264397 67.8468418 10.7907168 66.59 11.81 65.3884078 12.7979099 64.4130698 14.0324287 63.73 15.43 62.9987706 16.9690197 62.5806732 18.63801 62.5 20.34L69.5 20.34C69.5786273 18.5647107 70.2512613 16.8672784 71.41 15.52 72.6665137 14.4047994 74.3262241 13.8551785 76 14 77.5814781 13.8603128 79.1571725 14.3248032 80.41 15.3 81.3208515 16.1780914 81.8550748 17.3756121 81.9 18.64 81.9816805 19.2466688 82.0250996 19.8578769 82.03 20.47L82.03 23.14 79.87 23.14C73.4433333 23.14 68.7166667 24.14 65.69 26.14 61.6114784 28.944956 60.0692116 34.2321307 62 38.79 62.5531322 39.9506812 63.3555371 40.9750278 64.35 41.79 65.3691139 42.6292911 66.5404939 43.264213 67.8 43.66 69.155398 44.0866513 70.5690671 44.2992077 71.99 44.29 73.5158299 44.2970157 75.037966 44.1394377 76.53 43.82 77.908899 43.5153352 79.2139341 42.9409838 80.37 42.13L82.08 38.52 82.71 44.35 89.63 44.35C89.37 42.44 89.21 39.91 89.12 38.65 89.03 37.39 89 36.16 89 34.89zM82 30.83C82 33.5833333 81.3 35.6766667 79.9 37.11 78.4890255 38.5589234 76.5310934 39.3435493 74.51 39.27 72.9525416 39.345198 71.4145618 38.8982336 70.14 38 69.0016329 37.0208438 68.3996282 35.5567087 68.52 34.06 68.4097026 31.6513371 69.9125309 29.4624351 72.2 28.7 74.6466667 27.7066667 77.9266667 27.3733333 82.04 27.7L82 30.83zM104.09 13.57L110.69 13.57 110.69 8.68 104.09 8.68 104.09.62 97.09.62 97.09 8.68 92.33 8.68 92.33 13.57 97.09 13.57 97.09 36C97.09 36.72 97.09 37.38 97.15 38 97.1412259 39.8437957 97.8938078 41.6094686 99.23 42.88 100.45 43.9 102.4 44.41 105.08 44.41 106.800083 44.4029644 108.517582 44.2759897 110.22 44.03L110.22 39.2C107.93 39.42 106.38 39.29 105.56 38.82 104.74 38.35 104.26 37.3 104.13 35.65 104.13 35.18 104.06 34.75 104.06 34.35L104.06 13.57 104.09 13.57z"/>
    <rect width="6.98" height="21.89" x=".33" y="11.56" fill="#FF5A5A" fill-rule="nonzero"/>
    <rect width="42.91" height="17.81" x="115.77" y=".62" fill="#FF5A5A" fill-rule="nonzero"/>
    <path fill="#FFF" fill-rule="nonzero" d="M121.93 11.37C122.391989 11.3402915 122.84441 11.5108893 123.17176 11.8382395 123.499111 12.1655898 123.669708 12.618011 123.64 13.08 123.624331 13.7688001 123.203715 14.3834821 122.567351 14.6475513 121.930988 14.9116205 121.198746 14.7753356 120.7 14.3 120.071288 13.6005117 120.071288 12.5394883 120.7 11.84 121.030216 11.5244642 121.47351 11.3550755 121.93 11.37L121.93 11.37zM141.7 6.76C141.740343 7.03161402 141.763722 7.30547803 141.77 7.58 141.77 7.87 141.77 8.22 141.77 8.58L141.77 14.48 138.83 14.48 138.83 9.37C138.83 9.13 138.83 8.88 138.83 8.62 138.83 8.36 138.83 8.1 138.78 7.85 138.746553 7.4253305 138.578388 7.0224332 138.3 6.7 138.011996 6.41377955 137.615241 6.26454169 137.21 6.29 136.09 6.29 135.53 7.29 135.53 9.29L135.53 14.48 132.59 14.48 132.59 9.37C132.59 9.13 132.59 8.88 132.59 8.62 132.59 8.36 132.59 8.1 132.59 7.85 132.526034 7.41193177 132.318526 7.00746769 132 6.7 131.703771 6.4138736 131.301098 6.26513834 130.89 6.29 129.78 6.29 129.23 7.29 129.23 9.29L129.23 14.48 126.28 14.48 126.28 4.48 129.23 4.48 129.23 6.04 129.98 4.8C130.28516 4.59620636 130.623583 4.44730054 130.98 4.36 131.372332 4.2620131 131.775649 4.21495944 132.18 4.22 132.886027 4.19279438 133.58361 4.38114182 134.18 4.76 134.67089 5.10491871 135.047088 5.58909869 135.26 6.15L136.26 4.8C136.548429 4.59878435 136.869991 4.44985023 137.21 4.36 137.599029 4.26253763 137.998973 4.21548543 138.4 4.22 138.841401 4.21447674 139.280671 4.28205684 139.7 4.42 140.061056 4.53849363 140.399244 4.717733 140.7 4.95 141.235318 5.39633595 141.590614 6.02165708 141.7 6.71L141.7 6.76z"/>
    <polygon fill="#FFF" fill-rule="nonzero" points="154.24 14.52 150.81 14.52 149 11.26 147.09 14.52 143.72 14.52 147.22 9.46 143.85 4.53 147.28 4.53 149 7.66 150.78 4.53 154.16 4.53 150.73 9.53"/>
  </g>
</svg>
